<svg xmlns="http://www.w3.org/2000/svg" viewBox="0 0 64 64">
  <defs>
    <linearGradient id="bg" x1="0" y1="0" x2="1" y2="1">
      <stop offset="0" stop-color="#0D3D53"/>
      <stop offset="1" stop-color="#0B2635"/>
    </linearGradient>
    <linearGradient id="crate" x1="0" y1="0" x2="0" y2="1">
      <stop offset="0" stop-color="#E8B65D"/>
      <stop offset="1" stop-color="#C58C35"/>
    </linearGradient>
  </defs>

  <rect width="64" height="64" rx="14" fill="url(#bg)"/>
  <circle cx="32" cy="32" r="22" fill="#1C6A4D" fill-opacity="0.35"/>

  <path d="M32 13c8.2 0 14 5.8 14 14-6.9 0-11.8-2.5-14-7.1-2.2 4.6-7.1 7.1-14 7.1 0-8.2 5.8-14 14-14z" fill="#6DE29A"/>
  <rect x="31" y="24" width="2" height="8" rx="1" fill="#D7FFE8"/>

  <rect x="16" y="34" width="32" height="18" rx="4" fill="url(#crate)"/>
  <path d="M20 40h24M20 45h24M24 34v18M32 34v18M40 34v18" stroke="#8B5D1E" stroke-width="2" stroke-linecap="round"/>
</svg>
